<svg width="12" height="12" viewBox="0 0 12 12" fill="none" xmlns="http://www.w3.org/2000/svg">
<path d="M9.28482 9.1956L8.25954 7.14984L7.23425 9.1956" stroke="white" stroke-width="0.718658" stroke-linecap="round" stroke-linejoin="round"/>
<path d="M7.42108 8.83145H9.10753" stroke="white" stroke-width="0.718658" stroke-linecap="round" stroke-linejoin="round"/>
<path d="M8.25954 10.791C6.91804 10.791 5.82568 9.70343 5.82568 8.35714C5.82568 7.01565 6.91325 5.92331 8.25954 5.92331C9.60103 5.92331 10.6934 7.01086 10.6934 8.35714C10.6934 9.70343 9.60582 10.791 8.25954 10.791Z" stroke="white" stroke-width="0.718658" stroke-linecap="round" stroke-linejoin="round"/>
<path d="M2.55817 1.20892H4.43626C5.42801 1.20892 5.90711 1.68804 5.88316 2.65583V4.53391C5.90711 5.52566 5.42801 6.00478 4.43626 5.98082H2.55817C1.59037 5.99998 1.11127 5.52087 1.11127 4.52912V2.65103C1.11127 1.68803 1.59037 1.20892 2.55817 1.20892Z" stroke="white" stroke-width="0.718658" stroke-linecap="round" stroke-linejoin="round"/>
<path d="M4.46982 3.05347H2.52466" stroke="white" stroke-width="0.718658" stroke-linecap="round" stroke-linejoin="round"/>
<path d="M3.49243 2.72766V3.05345" stroke="white" stroke-width="0.718658" stroke-linecap="round" stroke-linejoin="round"/>
<path d="M3.98111 3.04868C3.98111 3.88711 3.32473 4.56743 2.51984 4.56743" stroke="white" stroke-width="0.718658" stroke-linecap="round" stroke-linejoin="round"/>
<path d="M4.46984 4.56746C4.12009 4.56746 3.80388 4.3806 3.5835 4.08356" stroke="white" stroke-width="0.718658" stroke-linecap="round" stroke-linejoin="round"/>
<path d="M1.11127 7.43729C1.11127 9.29142 2.61087 10.791 4.465 10.791L3.96194 9.95259" stroke="white" stroke-width="0.718658" stroke-linecap="round" stroke-linejoin="round"/>
<path d="M10.6934 4.56266C10.6934 2.70852 9.1938 1.20892 7.33966 1.20892L7.84272 2.04736" stroke="white" stroke-width="0.718658" stroke-linecap="round" stroke-linejoin="round"/>
</svg>
